<svg width="13" height="11" viewBox="0 0 13 11" fill="none" xmlns="http://www.w3.org/2000/svg">
<path d="M7.58341 6.875L5.41675 8.70833L7.58341 10.5417" stroke="#00AC4F"/>
<path d="M9.78376 3.89567C10.1367 4.41296 10.312 5.00334 10.2899 5.60036C10.2678 6.19738 10.0491 6.77731 9.65857 7.27488C9.26802 7.77244 8.72107 8.16787 8.0793 8.41665C7.43753 8.66543 6.72643 8.75767 6.02605 8.683" stroke="#00AC4F" stroke-linecap="round"/>
<path d="M5.41659 4.125L7.58325 2.29167L5.41659 0.458333" stroke="#00AC4F"/>
<path d="M3.21624 7.10433C2.85816 6.57954 2.68305 5.97967 2.71118 5.37416C2.7393 4.76865 2.96952 4.18226 3.37517 3.68286C3.78082 3.18347 4.34533 2.7915 5.00334 2.55232C5.66135 2.31314 6.38596 2.23653 7.09329 2.33136" stroke="#00AC4F" stroke-linecap="round"/>
</svg>
